<?xml version="1.0" encoding="us-ascii" standalone="no"?><svg xmlns="http://www.w3.org/2000/svg" xmlns:xlink="http://www.w3.org/1999/xlink" contentStyleType="text/css" height="363px" preserveAspectRatio="none" style="width:711px;height:363px;background:#FFFFFF;" version="1.1" viewBox="0 0 711 363" width="711px" zoomAndPan="magnify"><defs/><g><text fill="#000000" font-family="sans-serif" font-size="14" font-weight="bold" lengthAdjust="spacing" textLength="237" x="186.25" y="33.5352">QoT CLI Options - WBS Diagram</text><line style="stroke:#181818;stroke-width:1.5;" x1="38.5" x2="38.5" y1="101.6211" y2="121.6211"/><rect fill="#FFC0CB" height="34.1328" style="stroke:#181818;stroke-width:1.5;" width="57" x="10" y="121.6211"/><text fill="#000000" font-family="sans-serif" font-size="12" lengthAdjust="spacing" textLength="33" x="20" y="143.2227">select</text><line style="stroke:#181818;stroke-width:1.5;" x1="38.5" x2="48.5" y1="187.8203" y2="187.8203"/><rect fill="#F1F1F1" height="34.1328" style="stroke:#181818;stroke-width:1.5;" width="74" x="48.5" y="170.7539"/><text fill="#000000" font-family="sans-serif" font-size="12" lengthAdjust="spacing" textLength="54" x="58.5" y="192.3555">firstname</text><line style="stroke:#181818;stroke-width:1.5;" x1="38.5" x2="48.5" y1="236.9531" y2="236.9531"/><rect fill="#F1F1F1" height="34.1328" style="stroke:#181818;stroke-width:1.5;" width="72" x="48.5" y="219.8867"/><text fill="#000000" font-family="sans-serif" font-size="12" lengthAdjust="spacing" textLength="52" x="58.5" y="241.4883">lastname</text><line style="stroke:#181818;stroke-width:1.5;" x1="38.5" x2="48.5" y1="286.0859" y2="286.0859"/><rect fill="#F1F1F1" height="34.1328" style="stroke:#181818;stroke-width:1.5;" width="59" x="48.5" y="269.0195"/><text fill="#000000" font-family="sans-serif" font-size="12" lengthAdjust="spacing" textLength="39" x="58.5" y="290.6211">mobile</text><line style="stroke:#181818;stroke-width:1.5;" x1="38.5" x2="48.5" y1="335.2188" y2="335.2188"/><rect fill="#F1F1F1" height="34.1328" style="stroke:#181818;stroke-width:1.5;" width="51" x="48.5" y="318.1523"/><text fill="#000000" font-family="sans-serif" font-size="12" lengthAdjust="spacing" textLength="31" x="58.5" y="339.7539">email</text><line style="stroke:#181818;stroke-width:1.5;" x1="38.5" x2="38.5" y1="155.7539" y2="335.2188"/><line style="stroke:#181818;stroke-width:1.5;" x1="168" x2="168" y1="101.6211" y2="121.6211"/><rect fill="#FFC0CB" height="34.1328" style="stroke:#181818;stroke-width:1.5;" width="51" x="142.5" y="121.6211"/><text fill="#000000" font-family="sans-serif" font-size="12" lengthAdjust="spacing" textLength="27" x="152.5" y="143.2227">from</text><line style="stroke:#181818;stroke-width:1.5;" x1="168" x2="178" y1="187.8203" y2="187.8203"/><rect fill="#F1F1F1" height="34.1328" style="stroke:#181818;stroke-width:1.5;" width="88" x="178" y="170.7539"/><text fill="#000000" font-family="sans-serif" font-size="12" lengthAdjust="spacing" textLength="64" x="188" y="192.3555">sample.csv</text><line style="stroke:#181818;stroke-width:1.5;" x1="168" x2="168" y1="155.7539" y2="187.8203"/><line style="stroke:#181818;stroke-width:1.5;" x1="315.5" x2="315.5" y1="101.6211" y2="121.6211"/><rect fill="#FFC0CB" height="34.1328" style="stroke:#181818;stroke-width:1.5;" width="59" x="286" y="121.6211"/><text fill="#000000" font-family="sans-serif" font-size="12" lengthAdjust="spacing" textLength="35" x="296" y="143.2227">where</text><line style="stroke:#181818;stroke-width:1.5;" x1="315.5" x2="325.5" y1="187.8203" y2="187.8203"/><rect fill="#F1F1F1" height="34.1328" style="stroke:#181818;stroke-width:1.5;" width="71" x="325.5" y="170.7539"/><text fill="#000000" font-family="sans-serif" font-size="12" lengthAdjust="spacing" textLength="47" x="335.5" y="192.3555">age&lt;30</text><line style="stroke:#181818;stroke-width:1.5;" x1="315.5" x2="315.5" y1="155.7539" y2="187.8203"/><line style="stroke:#181818;stroke-width:1.5;" x1="440.5" x2="440.5" y1="101.6211" y2="121.6211"/><rect fill="#FFC0CB" height="34.1328" style="stroke:#181818;stroke-width:1.5;" width="48" x="416.5" y="121.6211"/><text fill="#000000" font-family="sans-serif" font-size="12" lengthAdjust="spacing" textLength="24" x="426.5" y="143.2227">limit</text><line style="stroke:#181818;stroke-width:1.5;" x1="440.5" x2="450.5" y1="187.8203" y2="187.8203"/><rect fill="#F1F1F1" height="34.1328" style="stroke:#181818;stroke-width:1.5;" width="40" x="450.5" y="170.7539"/><text fill="#000000" font-family="sans-serif" font-size="12" lengthAdjust="spacing" textLength="16" x="460.5" y="192.3555">10</text><line style="stroke:#181818;stroke-width:1.5;" x1="440.5" x2="440.5" y1="155.7539" y2="187.8203"/><line style="stroke:#181818;stroke-width:1.5;" x1="545.5" x2="545.5" y1="101.6211" y2="121.6211"/><rect fill="#FFC0CB" height="34.1328" style="stroke:#181818;stroke-width:1.5;" width="70" x="510.5" y="121.6211"/><text fill="#000000" font-family="sans-serif" font-size="12" lengthAdjust="spacing" textLength="46" x="520.5" y="143.2227">orderby</text><line style="stroke:#181818;stroke-width:1.5;" x1="545.5" x2="555.5" y1="187.8203" y2="187.8203"/><rect fill="#F1F1F1" height="34.1328" style="stroke:#181818;stroke-width:1.5;" width="45" x="555.5" y="170.7539"/><text fill="#000000" font-family="sans-serif" font-size="12" lengthAdjust="spacing" textLength="21" x="565.5" y="192.3555">age</text><line style="stroke:#181818;stroke-width:1.5;" x1="545.5" x2="545.5" y1="155.7539" y2="187.8203"/><line style="stroke:#181818;stroke-width:1.5;" x1="660.5" x2="660.5" y1="101.6211" y2="121.6211"/><rect fill="#FFC0CB" height="34.1328" style="stroke:#181818;stroke-width:1.5;" width="80" x="620.5" y="121.6211"/><text fill="#000000" font-family="sans-serif" font-size="12" lengthAdjust="spacing" textLength="60" x="630.5" y="143.2227">asc / desc</text><line style="stroke:#181818;stroke-width:1.5;" x1="38.5" x2="660.5" y1="101.6211" y2="101.6211"/><rect fill="#ADD8E6" height="34.1328" style="stroke:#181818;stroke-width:1.5;" width="39" x="330" y="47.4883"/><text fill="#000000" font-family="sans-serif" font-size="12" lengthAdjust="spacing" textLength="19" x="340" y="69.0898">qot</text><line style="stroke:#181818;stroke-width:1.5;" x1="349.5" x2="349.5" y1="81.6211" y2="101.6211"/><!--SRC=[LP1RJy9048NVzrTCuWkGW9GgCOqF15035aNBvS7mi6s7Ed4lkBijuT-xW9VwjdE-EJCxPs0TDswVMiOSEO7meXSmYYVml7EabOKsh8S9Z8aNXal6McyNCHNlRYXAtC2dTgpbfJcfZmrO59Wvy4eBjcIiKrpYgHAyLaYTaZW_KN8IjGbRe-NPRxdS2Unaje8Qtx-ZmNC3B_0sxDQX84dVsuD_G9iSJNhuzTKPjnbSGeusOso0AZybCHTSkUKiXWgDzIb0qEbrUs4d21fhp2717GGXzCBekX-58KoI1HnvapKUvZ5ONPeC8IVh3ANbCSOcc_AAmskf74cCVBYefkF77m7kL4L6AudAiUbgzjVGlseF_L496lyLMCtO6BUy5CuxCfsJAY9OBkxRDopcgYZzRH6WOYFjvvf319EdBm00]--></g></svg>