<?xml version="1.0" encoding="us-ascii" standalone="no"?><svg xmlns="http://www.w3.org/2000/svg" xmlns:xlink="http://www.w3.org/1999/xlink" contentStyleType="text/css" height="508px" preserveAspectRatio="none" style="width:1074px;height:508px;background:#FFFFFF;" version="1.1" viewBox="0 0 1074 508" width="1074px" zoomAndPan="magnify"><defs/><g><text fill="#000000" font-family="sans-serif" font-size="14" font-weight="bold" lengthAdjust="spacing" textLength="199" x="430.75" y="23.5352">QoT - Component Diagram</text><!--cluster Dependencies--><g id="cluster_Dependencies"><path d="M733,228.0283 L833,228.0283 A3.75,3.75 0 0 1 835.5,230.5283 L842.5,250.5166 L967,250.5166 A2.5,2.5 0 0 1 969.5,253.0166 L969.5,323.0083 A2.5,2.5 0 0 1 967,325.5083 L733,325.5083 A2.5,2.5 0 0 1 730.5,323.0083 L730.5,230.5283 A2.5,2.5 0 0 1 733,228.0283 " fill="none" style="stroke:#000000;stroke-width:1.5;"/><line style="stroke:#000000;stroke-width:1.5;" x1="730.5" x2="842.5" y1="250.5166" y2="250.5166"/><text fill="#000000" font-family="sans-serif" font-size="14" font-weight="bold" lengthAdjust="spacing" textLength="99" x="734.5" y="243.5634">Dependencies</text></g><!--entity minimist--><g id="elem_minimist"><rect fill="#F0FFF0" height="46.4883" rx="2.5" ry="2.5" style="stroke:#181818;stroke-width:1.0;" width="99" x="747" y="263.0283"/><rect fill="#F0FFF0" height="10" style="stroke:#181818;stroke-width:1.0;" width="15" x="826" y="268.0283"/><rect fill="#F0FFF0" height="2" style="stroke:#181818;stroke-width:1.0;" width="4" x="824" y="270.0283"/><rect fill="#F0FFF0" height="2" style="stroke:#181818;stroke-width:1.0;" width="4" x="824" y="274.0283"/><text fill="#000000" font-family="sans-serif" font-size="14" lengthAdjust="spacing" textLength="59" x="762" y="296.5634">minimist</text></g><!--entity yaml--><g id="elem_yaml"><rect fill="#F0FFF0" height="46.4883" rx="2.5" ry="2.5" style="stroke:#181818;stroke-width:1.0;" width="72" x="881.5" y="263.0283"/><rect fill="#F0FFF0" height="10" style="stroke:#181818;stroke-width:1.0;" width="15" x="933.5" y="268.0283"/><rect fill="#F0FFF0" height="2" style="stroke:#181818;stroke-width:1.0;" width="4" x="931.5" y="270.0283"/><rect fill="#F0FFF0" height="2" style="stroke:#181818;stroke-width:1.0;" width="4" x="931.5" y="274.0283"/><text fill="#000000" font-family="sans-serif" font-size="14" lengthAdjust="spacing" textLength="32" x="896.5" y="296.5634">yaml</text></g><g id="elem_&lt;b&gt;index&lt;/b&gt;"><ellipse cx="582.5024" cy="88.2873" fill="#FFE4E1" rx="39.0624" ry="14.659" style="stroke:#181818;stroke-width:1.0;"/><text fill="#000000" font-family="sans-serif" font-size="14" font-weight="bold" lengthAdjust="spacing" textLength="39" x="563.0024" y="91.5783">index</text></g><!--entity _aggregator--><g id="elem__aggregator"><rect fill="#E6E6FA" height="36.4883" rx="2.5" ry="2.5" style="stroke:#181818;stroke-width:0.5;" width="97" x="657" y="70.0483"/><text fill="#000000" font-family="sans-serif" font-size="14" lengthAdjust="spacing" textLength="77" x="667" y="93.5834">aggregator</text></g><!--entity _filter--><g id="elem__filter"><rect fill="#E6E6FA" height="36.4883" rx="2.5" ry="2.5" style="stroke:#181818;stroke-width:0.5;" width="52" x="788.5" y="70.0483"/><text fill="#000000" font-family="sans-serif" font-size="14" lengthAdjust="spacing" textLength="32" x="798.5" y="93.5834">filter</text></g><!--entity _lexer--><g id="elem__lexer"><rect fill="#E6E6FA" height="36.4883" rx="2.5" ry="2.5" style="stroke:#181818;stroke-width:0.5;" width="55" x="177" y="465.9983"/><text fill="#000000" font-family="sans-serif" font-size="14" lengthAdjust="spacing" textLength="35" x="187" y="489.5334">lexer</text></g><!--entity _orderby--><g id="elem__orderby"><rect fill="#E6E6FA" height="36.4883" rx="2.5" ry="2.5" style="stroke:#181818;stroke-width:0.5;" width="74" x="994.5" y="70.0483"/><text fill="#000000" font-family="sans-serif" font-size="14" lengthAdjust="spacing" textLength="54" x="1004.5" y="93.5834">orderby</text></g><!--entity _select_ast--><g id="elem__select_ast"><rect fill="#E6E6FA" height="36.4883" rx="2.5" ry="2.5" style="stroke:#181818;stroke-width:0.5;" width="87" x="161" y="268.0283"/><text fill="#000000" font-family="sans-serif" font-size="14" lengthAdjust="spacing" textLength="67" x="171" y="291.5634">select-ast</text></g><!--entity _select_clause--><g id="elem__select_clause"><rect fill="#E6E6FA" height="36.4883" rx="2.5" ry="2.5" style="stroke:#181818;stroke-width:0.5;" width="110" x="382.5" y="166.5383"/><text fill="#000000" font-family="sans-serif" font-size="14" lengthAdjust="spacing" textLength="90" x="392.5" y="190.0734">select-clause</text></g><!--entity _select_lexer--><g id="elem__select_lexer"><rect fill="#E6E6FA" height="36.4883" rx="2.5" ry="2.5" style="stroke:#181818;stroke-width:0.5;" width="102" x="153.5" y="369.5083"/><text fill="#000000" font-family="sans-serif" font-size="14" lengthAdjust="spacing" textLength="82" x="163.5" y="393.0434">select-lexer</text></g><!--entity _select_parser--><g id="elem__select_parser"><rect fill="#E6E6FA" height="36.4883" rx="2.5" ry="2.5" style="stroke:#181818;stroke-width:0.5;" width="111" x="7" y="369.5083"/><text fill="#000000" font-family="sans-serif" font-size="14" lengthAdjust="spacing" textLength="91" x="17" y="393.0434">select-parser</text></g><!--entity _tabulator--><g id="elem__tabulator"><rect fill="#E6E6FA" height="36.4883" rx="2.5" ry="2.5" style="stroke:#181818;stroke-width:0.5;" width="83" x="876" y="70.0483"/><text fill="#000000" font-family="sans-serif" font-size="14" lengthAdjust="spacing" textLength="63" x="886" y="93.5834">tabulator</text></g><!--entity _trimmer--><g id="elem__trimmer"><rect fill="#E6E6FA" height="36.4883" rx="2.5" ry="2.5" style="stroke:#181818;stroke-width:0.5;" width="75" x="420" y="465.9983"/><text fill="#000000" font-family="sans-serif" font-size="14" lengthAdjust="spacing" textLength="55" x="430" y="489.5334">trimmer</text></g><!--entity _utility--><g id="elem__utility"><rect fill="#E6E6FA" height="36.4883" rx="2.5" ry="2.5" style="stroke:#181818;stroke-width:0.5;" width="58" x="659.5" y="369.5083"/><text fill="#000000" font-family="sans-serif" font-size="14" lengthAdjust="spacing" textLength="38" x="669.5" y="393.0434">utility</text></g><!--entity _where_ast--><g id="elem__where_ast"><rect fill="#E6E6FA" height="36.4883" rx="2.5" ry="2.5" style="stroke:#181818;stroke-width:0.5;" width="90" x="407.5" y="268.0283"/><text fill="#000000" font-family="sans-serif" font-size="14" lengthAdjust="spacing" textLength="70" x="417.5" y="291.5634">where-ast</text></g><!--entity _where_clause--><g id="elem__where_clause"><rect fill="#E6E6FA" height="36.4883" rx="2.5" ry="2.5" style="stroke:#181818;stroke-width:0.5;" width="113" x="527" y="166.5383"/><text fill="#000000" font-family="sans-serif" font-size="14" lengthAdjust="spacing" textLength="93" x="537" y="190.0734">where-clause</text></g><!--entity _where_lexer--><g id="elem__where_lexer"><rect fill="#E6E6FA" height="36.4883" rx="2.5" ry="2.5" style="stroke:#181818;stroke-width:0.5;" width="105" x="510" y="369.5083"/><text fill="#000000" font-family="sans-serif" font-size="14" lengthAdjust="spacing" textLength="85" x="520" y="393.0434">where-lexer</text></g><!--entity _where_parser--><g id="elem__where_parser"><rect fill="#E6E6FA" height="36.4883" rx="2.5" ry="2.5" style="stroke:#181818;stroke-width:0.5;" width="114" x="290.5" y="369.5083"/><text fill="#000000" font-family="sans-serif" font-size="14" lengthAdjust="spacing" textLength="94" x="300.5" y="393.0434">where-parser</text></g><!--link <b>index</b> to _aggregator--><g id="link_&lt;b&gt;index&lt;/b&gt;__aggregator"><path d="M617.75,81.4883 C629.96,81.4883 637.87,81.4883 650.96,81.4883 " fill="none" id="&lt;b&gt;index&lt;/b&gt;-to-_aggregator" style="stroke:#87CEEB;stroke-width:1.0;"/><polygon fill="#87CEEB" points="656.96,81.4883,647.96,77.4883,651.96,81.4883,647.96,85.4883,656.96,81.4883" style="stroke:#87CEEB;stroke-width:1.0;"/></g><!--link <b>index</b> to _filter--><g id="link_&lt;b&gt;index&lt;/b&gt;__filter"><path d="M602.03,75.2083 C602.03,68.3983 602.03,61.4883 602.03,61.4883 C602.03,61.4883 814.5,61.4883 814.5,61.4883 C814.5,61.4883 814.5,59.0983 814.5,63.6783 " fill="none" id="&lt;b&gt;index&lt;/b&gt;-to-_filter" style="stroke:#87CEEB;stroke-width:1.0;"/><polygon fill="#87CEEB" points="814.5,69.6783,818.5,60.6783,814.5,64.6783,810.5,60.6783,814.5,69.6783" style="stroke:#87CEEB;stroke-width:1.0;"/></g><!--link <b>index</b> to minimist--><g id="link_&lt;b&gt;index&lt;/b&gt;_minimist"><path d="M621.74,88.4883 C637.2,88.4883 651.33,88.4883 651.33,88.4883 C651.33,88.4883 651.33,277.4883 651.33,277.4883 C651.33,277.4883 698.55,277.4883 740.54,277.4883 " fill="none" id="&lt;b&gt;index&lt;/b&gt;-to-minimist" style="stroke:#87CEEB;stroke-width:1.0;"/><polygon fill="#87CEEB" points="746.54,277.4883,737.54,273.4883,741.54,277.4883,737.54,281.4883,746.54,277.4883" style="stroke:#87CEEB;stroke-width:1.0;"/></g><!--link <b>index</b> to _orderby--><g id="link_&lt;b&gt;index&lt;/b&gt;__orderby"><path d="M562.97,75.5683 C562.97,62.3283 562.97,43.4883 562.97,43.4883 C562.97,43.4883 1031.5,43.4883 1031.5,43.4883 C1031.5,43.4883 1031.5,51.2683 1031.5,63.5483 " fill="none" id="&lt;b&gt;index&lt;/b&gt;-to-_orderby" style="stroke:#87CEEB;stroke-width:1.0;"/><polygon fill="#87CEEB" points="1031.5,69.5483,1035.5,60.5483,1031.5,64.5483,1027.5,60.5483,1031.5,69.5483" style="stroke:#87CEEB;stroke-width:1.0;"/></g><!--link <b>index</b> to _select_clause--><g id="link_&lt;b&gt;index&lt;/b&gt;__select_clause"><path d="M543.26,88.4883 C500.32,88.4883 437.5,88.4883 437.5,88.4883 C437.5,88.4883 437.5,132.2283 437.5,160.2183 " fill="none" id="&lt;b&gt;index&lt;/b&gt;-to-_select_clause" style="stroke:#87CEEB;stroke-width:1.0;"/><polygon fill="#87CEEB" points="437.5,166.2183,441.5,157.2183,437.5,161.2183,433.5,157.2183,437.5,166.2183" style="stroke:#87CEEB;stroke-width:1.0;"/></g><!--link <b>index</b> to _tabulator--><g id="link_&lt;b&gt;index&lt;/b&gt;__tabulator"><path d="M582.5,73.3183 C582.5,63.5083 582.5,52.4883 582.5,52.4883 C582.5,52.4883 917.5,52.4883 917.5,52.4883 C917.5,52.4883 917.5,54.8883 917.5,63.5483 " fill="none" id="&lt;b&gt;index&lt;/b&gt;-to-_tabulator" style="stroke:#87CEEB;stroke-width:1.0;"/><polygon fill="#87CEEB" points="917.5,69.5483,921.5,60.5483,917.5,64.5483,913.5,60.5483,917.5,69.5483" style="stroke:#87CEEB;stroke-width:1.0;"/></g><!--link <b>index</b> to _utility--><g id="link_&lt;b&gt;index&lt;/b&gt;__utility"><path d="M615.56,96.4883 C630.85,96.4883 645.67,96.4883 645.67,96.4883 C645.67,96.4883 645.67,382.4883 645.67,382.4883 C645.67,382.4883 645.69,382.4883 653.22,382.4883 " fill="none" id="&lt;b&gt;index&lt;/b&gt;-to-_utility" style="stroke:#D3D3D3;stroke-width:1.0;"/><polygon fill="#D3D3D3" points="659.22,382.4883,650.22,378.4883,654.22,382.4883,650.22,386.4883,659.22,382.4883" style="stroke:#D3D3D3;stroke-width:1.0;"/></g><!--link <b>index</b> to _where_clause--><g id="link_&lt;b&gt;index&lt;/b&gt;__where_clause"><path d="M582.5,103.3683 C582.5,120.3283 582.5,141.8883 582.5,160.1783 " fill="none" id="&lt;b&gt;index&lt;/b&gt;-to-_where_clause" style="stroke:#87CEEB;stroke-width:1.0;"/><polygon fill="#87CEEB" points="582.5,166.1783,586.5,157.1783,582.5,161.1783,578.5,157.1783,582.5,166.1783" style="stroke:#87CEEB;stroke-width:1.0;"/></g><!--link _orderby to _utility--><g id="link__orderby__utility"><path d="M1031.5,106.6183 C1031.5,171.7983 1031.5,388.4883 1031.5,388.4883 C1031.5,388.4883 806.69,388.4883 723.74,388.4883 " fill="none" id="_orderby-to-_utility" style="stroke:#D3D3D3;stroke-width:1.0;"/><polygon fill="#D3D3D3" points="717.74,388.4883,726.74,392.4883,722.74,388.4883,726.74,384.4883,717.74,388.4883" style="stroke:#D3D3D3;stroke-width:1.0;"/></g><!--link _select_ast to _select_lexer--><g id="link__select_ast__select_lexer"><path d="M204.5,304.8783 C204.5,323.1983 204.5,344.9883 204.5,363.2583 " fill="none" id="_select_ast-to-_select_lexer" style="stroke:#BDB76B;stroke-width:1.0;"/><polygon fill="#BDB76B" points="204.5,369.2583,208.5,360.2583,204.5,364.2583,200.5,360.2583,204.5,369.2583" style="stroke:#BDB76B;stroke-width:1.0;"/></g><!--link _select_ast to _select_parser--><g id="link__select_ast__select_parser"><path d="M160.74,286.4883 C119.01,286.4883 62.5,286.4883 62.5,286.4883 C62.5,286.4883 62.5,333.9483 62.5,363.1783 " fill="none" id="_select_ast-to-_select_parser" style="stroke:#BDB76B;stroke-width:1.0;"/><polygon fill="#BDB76B" points="62.5,369.1783,66.5,360.1783,62.5,364.1783,58.5,360.1783,62.5,369.1783" style="stroke:#BDB76B;stroke-width:1.0;"/></g><!--link _select_clause to _select_ast--><g id="link__select_clause__select_ast"><path d="M393.5,203.4383 C393.5,232.7983 393.5,286.4883 393.5,286.4883 C393.5,286.4883 310.17,286.4883 254.34,286.4883 " fill="none" id="_select_clause-to-_select_ast" style="stroke:#BDB76B;stroke-width:1.0;"/><polygon fill="#BDB76B" points="248.34,286.4883,257.34,290.4883,253.34,286.4883,257.34,282.4883,248.34,286.4883" style="stroke:#BDB76B;stroke-width:1.0;"/></g><!--link _select_clause to _utility--><g id="link__select_clause__utility"><path d="M450,203.4683 C450,217.2083 450,233.4883 450,233.4883 C450,233.4883 688.5,233.4883 688.5,233.4883 C688.5,233.4883 688.5,322.1183 688.5,363.1483 " fill="none" id="_select_clause-to-_utility" style="stroke:#D3D3D3;stroke-width:1.0;"/><polygon fill="#D3D3D3" points="688.5,369.1483,692.5,360.1483,688.5,364.1483,684.5,360.1483,688.5,369.1483" style="stroke:#D3D3D3;stroke-width:1.0;"/></g><!--link _select_lexer to _lexer--><g id="link__select_lexer__lexer"><path d="M204.5,406.3583 C204.5,423.4483 204.5,442.6283 204.5,459.6983 " fill="none" id="_select_lexer-to-_lexer" style="stroke:#BDB76B;stroke-width:1.0;"/><polygon fill="#BDB76B" points="204.5,465.6983,208.5,456.6983,204.5,460.6983,200.5,456.6983,204.5,465.6983" style="stroke:#BDB76B;stroke-width:1.0;"/></g><!--link _tabulator to yaml--><g id="link__tabulator_yaml"><path d="M917.5,106.9183 C917.5,143.1083 917.5,216.8683 917.5,256.6883 " fill="none" id="_tabulator-to-yaml" style="stroke:#87CEEB;stroke-width:1.0;"/><polygon fill="#87CEEB" points="917.5,262.6883,921.5,253.6883,917.5,257.6883,913.5,253.6883,917.5,262.6883" style="stroke:#87CEEB;stroke-width:1.0;"/></g><!--link _where_ast to _trimmer--><g id="link__where_ast__trimmer"><path d="M457.5,304.8883 C457.5,342.6283 457.5,421.7083 457.5,459.5283 " fill="none" id="_where_ast-to-_trimmer" style="stroke:#DDA0DD;stroke-width:1.0;"/><polygon fill="#DDA0DD" points="457.5,465.5283,461.5,456.5283,457.5,460.5283,453.5,456.5283,457.5,465.5283" style="stroke:#DDA0DD;stroke-width:1.0;"/></g><!--link _where_ast to _where_lexer--><g id="link__where_ast__where_lexer"><path d="M497.98,295.4883 C509.41,295.4883 518.5,295.4883 518.5,295.4883 C518.5,295.4883 518.5,336.1183 518.5,363.0883 " fill="none" id="_where_ast-to-_where_lexer" style="stroke:#DDA0DD;stroke-width:1.0;"/><polygon fill="#DDA0DD" points="518.5,369.0883,522.5,360.0883,518.5,364.0883,514.5,360.0883,518.5,369.0883" style="stroke:#DDA0DD;stroke-width:1.0;"/></g><!--link _where_ast to _where_parser--><g id="link__where_ast__where_parser"><path d="M413.75,304.5383 C413.75,333.9483 413.75,388.4883 413.75,388.4883 C413.75,388.4883 416.23,388.4883 410.82,388.4883 " fill="none" id="_where_ast-to-_where_parser" style="stroke:#DDA0DD;stroke-width:1.0;"/><polygon fill="#DDA0DD" points="404.82,388.4883,413.82,392.4883,409.82,388.4883,413.82,384.4883,404.82,388.4883" style="stroke:#DDA0DD;stroke-width:1.0;"/></g><!--link _where_clause to _utility--><g id="link__where_clause__utility"><path d="M627.5,203.3883 C627.5,254.7083 627.5,394.4883 627.5,394.4883 C627.5,394.4883 637.47,394.4883 653.07,394.4883 " fill="none" id="_where_clause-to-_utility" style="stroke:#D3D3D3;stroke-width:1.0;"/><polygon fill="#D3D3D3" points="659.07,394.4883,650.07,390.4883,654.07,394.4883,650.07,398.4883,659.07,394.4883" style="stroke:#D3D3D3;stroke-width:1.0;"/></g><!--link _where_clause to _where_ast--><g id="link__where_clause__where_ast"><path d="M571,203.4383 C571,232.7983 571,286.4883 571,286.4883 C571,286.4883 537.39,286.4883 503.98,286.4883 " fill="none" id="_where_clause-to-_where_ast" style="stroke:#DDA0DD;stroke-width:1.0;"/><polygon fill="#DDA0DD" points="497.98,286.4883,506.98,290.4883,502.98,286.4883,506.98,282.4883,497.98,286.4883" style="stroke:#DDA0DD;stroke-width:1.0;"/></g><!--SRC=[ZPDFRzGm4CNl_XJMSW0a5hf872gLlNGb3d00gRTgLKsI8R7Ys97jT3T2V7Vis4cSFssuUJo_l8oVdtKA76a5Ltgu_Nn3Bomp1J6ofaRIH1eZAvenXQbXKX2YIoPgK51HpWIQjaOgbIbar02bvELUSgceBjk4DqZ8MogVWKTGep45ZVGFeJI1jCoLR4JclwgODgsI6brFgWpLGy7IKg3Mz43-EZKt3uYSOoGvxAsASdX6OQLMD6y-Vl6ggQngAL2OI7NOMrKjRAlDyFBIf8OPEyyl-K3tz7vGEZ78hJOXx-wI8xDJNUy-9SVtP3p13l9SOGv6gXq5JP_6EgP-Csum47uTTpbU-sQtZ7lTi4dhkw68-ngvBVQWZKTy_MJh5IhbOEzp0lgj5JOQAg2BsG9f_TSpr6_5h86auQDDGpbX5AkgNYaKSRynZ3CJl0X5tByKg72qeYldJdWcDi9ZInyy6TdWmOKBdejDy63mWDGsYf1Ry8IrIxP86UfTbzB7YWdcNj7P5IrK_Ep2E4qRtJ-QFgnV3-VZ96DRQ0ZR79jpqI1RYdq6joHd0TkI7GEn8D_yO7bXlYbeFym-wZEmESlaZliZE6xKZlMYLzH19r3bzm9A5ftBv-1_o124gI4lqYwl2tHhq6wOfMIOSV3MAHtxe8tlm__W9s-gxYR2mvlqntRy2bv5-cF7thzY-GARgZbR_W40]--></g></svg>